<svg width="2624" height="647" viewBox="0 0 2624 647" fill="none" xmlns="http://www.w3.org/2000/svg">
<path d="M973.938 528.401C941.921 528.401 913.863 521.86 889.765 508.778C866.01 495.352 847.592 476.589 834.509 452.49C821.427 428.391 814.886 399.989 814.886 367.284C814.886 334.578 821.427 306.176 834.509 282.077C847.592 257.978 866.01 239.388 889.765 226.306C913.863 212.879 941.921 206.166 973.938 206.166C1006.99 206.166 1035.22 212.707 1058.63 225.789C1082.38 238.871 1100.63 257.462 1113.37 281.561C1126.45 305.66 1132.99 334.234 1132.99 367.284C1132.99 399.989 1126.45 428.564 1113.37 453.007C1100.63 477.105 1082.38 495.696 1058.63 508.778C1034.87 521.86 1006.64 528.401 973.938 528.401ZM973.938 477.794C1005.96 477.794 1030.74 468.154 1048.3 448.875C1066.2 429.252 1075.15 402.055 1075.15 367.284C1075.15 332.168 1066.2 304.971 1048.3 285.692C1030.74 266.413 1005.96 256.773 973.938 256.773C942.266 256.773 917.478 266.585 899.576 286.208C881.674 305.487 872.723 332.513 872.723 367.284C872.723 402.055 881.674 429.252 899.576 448.875C917.478 468.154 942.266 477.794 973.938 477.794ZM1200.2 646.141V272.266H1170.25V212.363H1232.22V259.872H1253.91C1264.24 242.314 1278.35 229.06 1296.25 220.109C1314.16 210.814 1335.5 206.166 1360.29 206.166C1391.62 206.166 1418.13 212.707 1439.81 225.789C1461.5 238.871 1478.03 257.462 1489.39 281.561C1501.09 305.66 1506.95 334.234 1506.95 367.284C1506.95 400.333 1501.27 428.908 1489.91 453.007C1478.54 477.105 1462.19 495.696 1440.85 508.778C1419.85 521.86 1394.72 528.401 1365.45 528.401C1341.01 528.401 1319.66 523.582 1301.42 513.942C1283.17 503.958 1269.4 490.015 1260.11 472.113H1258.04V646.141H1200.2ZM1351.51 478.827C1382.49 478.827 1406.42 469.015 1423.29 449.392C1440.5 429.768 1449.11 402.399 1449.11 367.284C1449.11 332.168 1440.5 304.799 1423.29 285.176C1406.42 265.552 1382.49 255.741 1351.51 255.741C1323.28 255.741 1300.56 263.831 1283.34 280.012C1266.48 296.192 1258.04 317.709 1258.04 344.562V390.005C1258.04 416.858 1266.48 438.375 1283.34 454.556C1300.56 470.736 1323.28 478.827 1351.51 478.827ZM1701.45 528.401C1669.09 528.401 1641.03 521.86 1617.28 508.778C1593.53 495.352 1575.11 476.417 1562.02 451.974C1549.29 427.531 1542.92 398.956 1542.92 366.251C1542.92 333.545 1549.29 305.315 1562.02 281.561C1575.11 257.462 1593.35 238.871 1616.76 225.789C1640.17 212.707 1667.54 206.166 1698.87 206.166C1728.82 206.166 1754.64 212.191 1776.33 224.24C1798.36 236.289 1815.41 253.331 1827.46 275.364C1839.51 297.397 1845.53 323.562 1845.53 353.857V377.095H1598.69C1600.41 409.457 1610.22 434.76 1628.12 453.007C1646.37 470.909 1670.64 479.86 1700.94 479.86C1721.94 479.86 1739.67 475.556 1754.13 466.949C1768.59 457.998 1778.57 444.916 1784.08 427.703H1842.95C1835.37 459.72 1819.02 484.507 1793.89 502.065C1769.1 519.623 1738.29 528.401 1701.45 528.401ZM1600.75 334.75H1789.76C1787 309.274 1777.54 289.479 1761.36 275.364C1745.52 261.249 1724.52 254.191 1698.35 254.191C1672.53 254.191 1651.02 261.249 1633.8 275.364C1616.59 289.479 1605.57 309.274 1600.75 334.75ZM1929.54 522.205V256.773H1866.54V212.363H1930.06V140.583C1930.06 123.025 1934.88 109.943 1944.52 101.336C1954.16 92.7294 1967.41 88.4261 1984.28 88.4261H2070V132.837H1986.86V212.363H2063.81V256.773H1987.38V522.205H1929.54Z" fill="white"/>
<path d="M2079.21 520.197C2067.85 520.197 2058.21 516.238 2050.29 508.32C2042.38 500.401 2038.42 490.762 2038.42 479.401C2038.42 468.04 2042.38 458.401 2050.29 450.482C2058.21 442.564 2067.85 438.605 2079.21 438.605C2090.57 438.605 2100.21 442.564 2108.13 450.482C2116.05 458.401 2120.01 468.04 2120.01 479.401C2120.01 490.762 2116.05 500.401 2108.13 508.32C2100.21 516.238 2090.57 520.197 2079.21 520.197ZM2269.95 519.68C2234.84 519.68 2207.12 511.074 2186.81 493.86C2166.84 476.303 2156.86 453.409 2156.86 425.179C2156.86 395.572 2166.84 372.678 2186.81 356.497C2206.78 339.972 2235.52 331.71 2273.05 331.71H2378.91V317.767C2378.91 269.914 2352.57 245.987 2299.9 245.987C2256.87 245.987 2230.88 262.167 2221.93 294.529H2163.57C2168.74 263.889 2183.37 240.134 2207.47 223.265C2231.91 206.396 2263.07 197.961 2300.93 197.961C2343.97 197.961 2376.85 208.117 2399.57 228.429C2422.63 248.741 2434.17 278.004 2434.17 316.218V454.097H2462.05V514H2400.08V466.491H2378.4C2367.72 483.016 2353.09 496.098 2334.5 505.738C2315.91 515.033 2294.39 519.68 2269.95 519.68ZM2277.7 473.204C2296.29 473.204 2313.33 469.417 2328.82 461.843C2344.31 454.269 2356.53 443.941 2365.49 430.859C2374.44 417.777 2378.91 403.49 2378.91 387.998V374.055H2276.66C2233.29 374.055 2211.6 390.235 2211.6 422.597C2211.6 438.089 2217.45 450.482 2229.15 459.778C2240.86 468.729 2257.04 473.204 2277.7 473.204ZM2520.94 514V204.158H2578.78V514H2520.94ZM2549.86 161.813C2540.22 161.813 2531.96 158.37 2525.07 151.485C2518.18 144.6 2514.74 136.337 2514.74 126.698C2514.74 117.058 2518.18 108.796 2525.07 101.91C2531.96 95.025 2540.22 91.5823 2549.86 91.5823C2559.5 91.5823 2567.76 95.025 2574.64 101.91C2581.53 108.796 2584.97 117.058 2584.97 126.698C2584.97 136.337 2581.53 144.6 2574.64 151.485C2567.76 158.37 2559.5 161.813 2549.86 161.813Z" fill="#D9D9D9"/>
<mask id="path-3-inside-1_12_36" fill="white">
<path d="M91.104 546.408L91.8545 547.213C91.3815 546.793 90.9336 546.345 90.5133 545.872L91.104 546.408Z"/>
</mask>
<path d="M91.104 546.408L96.373 540.605L96.6143 540.825L96.8366 541.063L91.104 546.408ZM91.8545 547.213L97.5871 541.868L86.6483 553.073L91.8545 547.213ZM90.5133 545.872L84.654 551.078L95.7823 540.069L90.5133 545.872ZM91.104 546.408L96.8366 541.063L97.5871 541.868L91.8545 547.213L86.1219 552.559L85.3714 551.754L91.104 546.408ZM91.8545 547.213L86.6483 553.073C85.9449 552.448 85.279 551.782 84.654 551.078L90.5133 545.872L96.3727 540.666C96.5883 540.909 96.818 541.138 97.0607 541.354L91.8545 547.213ZM90.5133 545.872L95.7823 540.069L96.373 540.605L91.104 546.408L85.835 552.211L85.2443 551.675L90.5133 545.872Z" fill="white" mask="url(#path-3-inside-1_12_36)"/>
<path d="M9.51904 313.22C8.97059 321.153 8.59717 329.325 8.59717 337.286V337.287C8.59225 348.255 9.20024 359.212 10.4116 370.106L14.7944 367.87C15.7961 367.218 16.8613 366.671 17.9741 366.238C23.6302 363.057 29.8516 359.306 35.8071 355.545L35.8657 355.508L35.9253 355.473L36.6118 355.061C38.2179 354.069 39.8698 352.869 41.6743 351.554L41.7593 351.491L41.8481 351.434C43.3048 350.488 44.8237 349.456 46.3394 348.438C43.1315 345.693 40.0571 342.788 37.1284 339.733C34.569 337.122 31.9129 334.412 29.5288 331.684L22.646 324.662L20.9087 322.889L20.8755 322.855L20.8423 322.82C19.8781 321.787 18.8473 320.823 17.7563 319.934L17.6118 319.815L17.48 319.686C16.5323 318.751 15.5176 317.889 14.4458 317.106L14.4468 317.105C13.2441 316.231 12.0993 315.28 11.0171 314.258C10.5374 313.882 10.0371 313.536 9.51904 313.22Z" stroke="white" stroke-width="7.83814"/>
<path d="M25.0437 239.84C20.0495 254.302 16.1 269.113 13.2244 284.156C18.2405 285.691 22.957 288.113 27.1511 291.317C32.6939 295.491 37.861 300.15 42.5945 305.239C44.8393 307.508 47.1943 309.888 49.282 312.29C50.9657 313.991 52.7554 315.804 54.5544 317.922C59.6692 323.717 65.5703 328.748 72.0798 332.868C72.7485 333.269 73.4545 333.6 74.1873 333.856C93.6488 337.583 112.855 342.565 131.687 348.77L131.7 348.774L131.713 348.779C134.382 349.678 136.749 350.576 139.046 351.447C140.155 351.867 141.341 352.29 142.572 352.729C143.788 353.163 145.048 353.612 146.242 354.065C150.874 355.821 155.719 357.954 159.85 359.625L159.902 359.645L159.953 359.667C179.609 368.27 198.424 378.715 216.151 390.866L216.176 390.882L216.199 390.899C217.7 391.961 219.191 393.092 220.621 394.176C222.07 395.274 223.457 396.326 224.835 397.3L224.924 397.363L225.009 397.43L229.038 400.63L229.082 400.666L229.126 400.703C234.253 405.021 239.307 409.225 243.491 413.455C243.872 413.84 244.251 414.223 244.628 414.604C244.079 413.107 243.543 411.562 243.075 410.3L243.028 410.171L242.989 410.041C242.711 409.093 242.334 408.179 241.865 407.313L241.732 407.069L241.636 406.809C241.242 405.746 240.786 404.693 240.258 403.434C239.785 402.307 239.275 401.061 238.819 399.72C238.157 398.453 237.643 397.114 237.288 395.729C236.717 394.532 236.221 393.309 235.765 392.158C235.243 390.837 234.777 389.624 234.239 388.402C233.683 387.137 233.125 385.937 232.547 384.696C231.981 383.48 231.396 382.223 230.808 380.888C229.332 377.791 227.833 374.733 226.281 371.71L226.278 371.705L224.061 367.37L224.062 367.369C223.281 365.879 222.597 364.525 221.869 363.245L221.829 363.173L221.792 363.101C220.345 360.29 218.842 357.7 217.273 354.968L217.263 354.953C216.497 353.604 215.745 352.309 214.973 351.055L214.957 351.029L214.94 351.001C213.416 348.434 211.866 345.955 210.29 343.565C209.5 342.367 208.71 341.199 207.922 340.06L207.912 340.046C205.169 336.05 202.176 332.236 198.952 328.626L198.919 328.589L198.885 328.55C198.654 328.277 198.386 328.004 197.995 327.608C197.35 326.956 197.16 326.703 196.67 326.237L196.643 326.212L196.618 326.187L195.409 324.995L195.392 324.977L195.376 324.96C195.059 324.64 194.748 324.349 194.446 324.084C179.619 312.603 163.598 302.79 146.667 294.822L146.634 294.806C126.839 285.263 105.204 277.462 86.5261 275.208L86.5105 275.206C68.6296 272.971 51.8384 265.331 38.3337 253.293C33.62 249.101 29.1817 244.606 25.0437 239.84Z" stroke="white" stroke-width="7.83814"/>
<path d="M86.4675 134.99C73.8012 148.438 62.4356 163.094 52.533 178.759C46.4984 188.86 40.9924 199.276 36.0378 209.963C36.4465 210.493 36.8495 211.013 37.2781 211.542L37.3171 211.589L37.3533 211.637L38.9939 213.795C41.6494 217.202 44.6084 220.82 47.9656 224.421L48.9978 225.496L49.0593 225.56L49.1189 225.627C49.2428 225.769 49.3745 225.903 49.5134 226.028L49.571 226.08L49.6257 226.133L50.3738 226.862L50.4285 226.917C51.4611 227.963 52.3414 228.852 53.2166 229.591L53.3308 229.687L53.4363 229.792C54.2472 230.59 55.1006 231.342 55.9919 232.045L56.0085 232.059L56.0261 232.073C57.6096 233.351 59.0494 234.534 60.6042 235.697C61.9356 236.661 63.314 237.556 64.7341 238.379L70.4529 241.693C70.8366 241.833 71.1642 241.967 71.4324 242.076C71.7966 242.223 72.0572 242.328 72.365 242.432L72.4753 242.469L72.5828 242.513C74.0257 243.098 75.3653 243.641 76.9675 244.182L77.0076 244.195L77.0476 244.209C80.762 245.555 84.6155 246.463 88.533 246.917L88.5535 246.92L88.574 246.922C107.672 249.343 129.429 256.549 150.055 265.871C135.232 241.392 121.614 216.18 109.256 190.328C108.798 189.396 108.416 188.547 108.064 187.763C107.702 186.955 107.37 186.216 106.974 185.415L106.954 185.373L106.934 185.331C104.608 180.318 102.574 175.605 100.563 170.945L100.538 170.888L100.515 170.831C100.267 170.201 99.9466 169.484 99.5779 168.662C99.2347 167.896 98.8461 167.028 98.5232 166.214C96.4933 161.507 94.7526 157.098 93.0369 152.75C92.4544 151.361 91.9519 149.939 91.531 148.492C90.3674 145.526 89.4881 142.854 88.6443 140.288L88.6169 140.202C88.1223 138.572 87.631 136.952 87.1414 135.362L86.7126 135.796L86.4675 134.99Z" stroke="white" stroke-width="7.83814"/>
<mask id="path-8-inside-2_12_36" fill="white">
<path d="M156.229 273.614C157.558 274.134 158.888 274.545 160.253 274.955L156.229 273.614Z"/>
</mask>
<path d="M156.229 273.614L153.373 280.914L158.708 266.178L156.229 273.614ZM160.253 274.955L162.731 267.52L157.995 282.461L160.253 274.955ZM156.229 273.614L159.085 266.315C160.091 266.709 161.151 267.041 162.51 267.449L160.253 274.955L157.995 282.461C156.624 282.049 155.026 281.56 153.373 280.914L156.229 273.614ZM160.253 274.955L157.774 282.391L153.751 281.05L156.229 273.614L158.708 266.178L162.731 267.52L160.253 274.955Z" fill="white" mask="url(#path-8-inside-2_12_36)"/>
<mask id="path-10-inside-3_12_36" fill="white">
<path d="M47.5954 228.014L48.0523 228.513C49.2105 229.698 50.3997 230.915 51.6189 232.038C50.5216 230.977 49.4547 229.886 48.3879 228.919L47.5954 228.014Z"/>
</mask>
<path d="M47.5954 228.014L41.6999 233.179L53.3766 222.721L47.5954 228.014ZM48.0523 228.513L42.4464 233.991L42.3573 233.9L42.2711 233.806L48.0523 228.513ZM51.6189 232.038L57.0659 226.402L46.309 237.803L51.6189 232.038ZM48.3879 228.919L43.1241 234.726L42.7898 234.423L42.4924 234.084L48.3879 228.919ZM47.5954 228.014L53.3766 222.721L53.8335 223.22L48.0523 228.513L42.2711 233.806L41.8142 233.307L47.5954 228.014ZM48.0523 228.513L53.6582 223.035C54.8412 224.246 55.8869 225.313 56.9288 226.272L51.6189 232.038L46.309 237.803C44.9125 236.517 43.5799 235.151 42.4464 233.991L48.0523 228.513ZM51.6189 232.038L46.1718 237.674C44.8413 236.388 44.078 235.591 43.1241 234.726L48.3879 228.919L53.6517 223.111C54.8313 224.18 56.2019 225.567 57.0659 226.402L51.6189 232.038ZM48.3879 228.919L42.4924 234.084L41.6999 233.179L47.5954 228.014L53.4909 222.849L54.2834 223.753L48.3879 228.919Z" fill="white" mask="url(#path-10-inside-3_12_36)"/>
<path d="M117.261 138.997C118.833 143.344 120.522 147.648 122.328 151.904L122.338 151.928L122.348 151.953C123.314 154.319 124.337 156.726 125.418 159.172L125.43 159.2L125.442 159.226C128.287 165.933 131.598 172.952 135.109 180.202L135.123 180.23L135.135 180.259C135.751 181.585 136.388 182.837 137.09 184.282C140.203 190.631 143.469 197.067 146.869 203.513L148.333 206.275C149.777 208.981 151.207 211.661 152.664 214.308L152.672 214.325L152.681 214.34C154.714 218.12 156.804 221.899 158.922 225.62L158.929 225.632L158.937 225.645C160.451 228.351 161.996 231.032 163.555 233.738L163.557 233.74C164.715 235.752 165.844 237.716 166.999 239.617C168.301 241.762 169.26 243.418 170.483 245.42L170.511 245.466L170.538 245.513C171.248 246.751 171.975 247.916 172.774 249.227L173.06 249.674L173.083 249.709L173.104 249.745L176.354 255.047C179.922 260.814 183.408 266.188 186.812 271.17L186.823 271.186L186.833 271.201L188.448 273.613L188.453 273.621L191.336 277.95C196.663 285.757 202.583 293.135 209.042 300.018L209.051 300.028L209.06 300.037C209.686 300.712 210.373 301.328 211.112 301.875L212.7 303.049V303.55C212.792 303.637 212.882 303.719 212.964 303.796L212.972 303.803L212.979 303.81L213.989 304.769L214.03 304.809L214.071 304.85C214.966 305.752 215.793 306.675 216.553 307.588C230.198 321.97 242.485 342.977 252.318 363.082C252.653 363.757 252.978 364.497 253.258 365.131C253.555 365.804 253.807 366.372 254.048 366.859L254.085 366.937C260.592 380.806 266.34 394.664 270.22 404.579C270.382 404.469 270.551 404.354 270.732 404.235L271.712 403.589H272.094C272.314 403.443 272.529 403.289 272.736 403.125L272.804 403.072L272.875 403.02L273.687 402.449C274.498 401.889 275.294 401.369 275.971 400.914C276.922 400.275 277.716 399.717 278.413 399.131L278.449 399.101L278.487 399.071L278.853 398.773C279.701 398.072 280.508 397.321 281.268 396.523L281.275 396.516L281.281 396.509L281.718 396.047C283.888 393.718 285.764 391.126 287.304 388.33L287.328 388.287L287.726 387.558C288.398 386.289 289.138 384.709 289.876 383.069C288.222 380.69 286.724 378.204 285.396 375.625C285.049 375.016 284.737 374.419 284.434 373.837L284.43 373.831L284.426 373.823C277.01 359.411 266.575 332.974 250.056 284.347L249.848 283.734V283.6C249.843 283.588 249.838 283.576 249.833 283.563C249.803 283.482 249.766 283.383 249.729 283.271L249.651 283.036L249.604 282.792C249.576 282.648 249.54 282.504 249.497 282.36L249.483 282.314L249.47 282.268C249.386 281.963 249.175 281.256 249.021 280.658C248.543 279.003 248.075 277.304 247.505 275.411L247.492 275.364C246.483 271.85 245.329 267.811 244.059 263.276L243.368 260.864L243.367 260.86C242.876 259.145 242.378 257.313 241.873 255.502C241.631 254.709 241.423 253.93 241.227 253.169L240.975 252.295L240.954 252.219C240.665 251.136 240.297 249.822 239.978 248.572L239.977 248.573C237.78 240.446 235.407 231.404 233.032 221.658L233.029 221.648L233.027 221.638C232.796 220.67 232.565 219.701 232.334 218.733C232.104 217.764 231.874 216.795 231.643 215.827L231.64 215.818L231.638 215.809C230.284 210.003 228.919 204.147 227.61 197.846L227.611 197.845C227.481 197.243 227.354 196.637 227.224 196.029C212.541 195.399 197.425 190.257 182.705 182.983L182.678 182.97L182.653 182.957C166.706 174.78 151.498 165.217 137.202 154.377L139.57 151.255L137.187 154.367L129.862 148.758L129.814 148.721L129.766 148.683L129.765 148.682C129.764 148.681 129.762 148.679 129.759 148.677C129.754 148.673 129.747 148.667 129.737 148.659C129.716 148.642 129.684 148.616 129.642 148.583C129.559 148.515 129.436 148.415 129.278 148.287C128.961 148.03 128.502 147.66 127.941 147.211C126.817 146.313 125.285 145.1 123.651 143.84L123.629 143.823L123.608 143.806C123.176 143.463 122.723 143.12 122.233 142.75C121.783 142.411 121.295 142.044 120.821 141.672L118.947 140.278L118.93 140.265L118.915 140.253L117.271 139.003L117.261 138.997Z" stroke="white" stroke-width="7.83814"/>
<path d="M223.107 55.3931C186.079 65.05 151.396 82.1634 121.142 105.679C121.772 106.2 122.389 106.738 122.989 107.294C130.297 113.16 139.426 120.778 149.745 128.579C152.399 130.554 155.094 132.544 157.869 134.532C162.36 137.729 166.987 140.892 171.693 143.937C172.872 144.679 174.118 145.49 175.331 146.281C176.565 147.085 177.766 147.869 178.891 148.577C179.995 149.271 181.177 149.972 182.415 150.705C183.593 151.403 184.824 152.131 185.997 152.866C186.671 153.22 187.359 153.645 187.799 153.906C188.367 154.243 188.813 154.484 189.254 154.662L189.58 154.792L189.877 154.98C191.978 156.303 194.243 157.304 196.778 158.581L196.782 158.583C199.018 159.712 201.31 160.726 203.647 161.624L203.711 161.648L203.773 161.675C206.006 162.622 208.287 163.449 210.606 164.152L210.682 164.174L210.758 164.201C214.42 165.475 218.177 166.446 221.99 167.107C220.728 156.474 220.064 145.777 220.007 135.068L220.005 132.583C220.005 129.472 220.004 126.261 220.178 123.088C220.178 121.158 220.178 118.963 220.405 116.936C220.478 116.284 220.481 115.537 220.489 114.466C220.496 113.497 220.507 112.25 220.677 111.017C220.778 110.28 220.832 109.358 220.875 108.242C220.915 107.198 220.948 105.933 221.025 104.794C221.099 103.709 221.165 102.862 221.227 102.085C221.289 101.307 221.345 100.616 221.401 99.8101L221.403 99.7808L221.692 96.1372C221.988 92.5102 222.304 88.9371 222.654 85.4575C223.116 80.8656 223.609 75.9083 224.072 71.3647L224.073 71.356V71.3472L224.717 65.3735C225.121 61.6132 225.486 58.0888 225.75 54.7349L223.107 55.3931Z" stroke="white" stroke-width="7.83814"/>
<mask id="path-14-inside-4_12_36" fill="white">
<path d="M154.888 136.732C159.523 140.073 164.363 143.385 169.261 146.579L176.536 151.252L183.752 155.717C184.925 156.309 186.479 157.255 187.653 157.847C189.999 159.325 192.757 160.538 195.103 161.721L198.536 163.347L202.319 164.944C204.666 165.831 207.599 166.925 210.239 167.901C215.763 169.833 221.493 171.104 227.311 171.687V171.332C225 155.018 224.078 138.535 224.554 122.063C224.554 125.198 224.378 128.392 224.378 131.616C224.334 144.9 225.216 158.172 227.018 171.332C221.121 170.729 215.313 169.439 209.711 167.487C207.222 166.732 204.774 165.843 202.378 164.826C199.881 163.866 197.434 162.78 195.045 161.573C192.698 160.39 190.058 159.207 187.712 157.728C186.245 157.137 185.072 156.25 183.898 155.658C181.552 154.18 178.912 152.701 176.565 151.222C174.219 149.744 171.579 147.969 169.232 146.491C164.245 143.267 159.493 140.014 154.888 136.732Z"/>
</mask>
<path d="M154.888 136.732L150.304 143.089L159.438 130.349L154.888 136.732ZM169.261 146.579L165.025 153.174L165.003 153.16L164.98 153.145L169.261 146.579ZM176.536 151.252L172.411 157.917L172.355 157.882L172.3 157.847L176.536 151.252ZM183.752 155.717L180.223 162.716L179.918 162.562L179.627 162.382L183.752 155.717ZM187.653 157.847L191.181 150.847L191.515 151.016L191.831 151.215L187.653 157.847ZM195.103 161.721L191.747 168.804L191.66 168.763L191.575 168.72L195.103 161.721ZM198.536 163.347L195.488 170.569L195.332 170.503L195.179 170.43L198.536 163.347ZM202.319 164.944L199.547 172.276L199.408 172.223L199.272 172.165L202.319 164.944ZM210.239 167.901L207.652 175.3L207.586 175.277L207.522 175.253L210.239 167.901ZM227.311 171.687H235.149V180.349L226.53 179.486L227.311 171.687ZM227.311 171.332L235.072 170.233L235.149 170.779V171.332H227.311ZM224.554 122.063L216.719 121.837L232.392 122.063L224.554 122.063ZM224.378 131.616H232.216V131.629L232.216 131.642L224.378 131.616ZM227.018 171.332L234.783 170.268L236.135 180.143L226.221 179.129L227.018 171.332ZM209.711 167.487L211.987 159.987L212.14 160.033L212.29 160.085L209.711 167.487ZM202.378 164.826L205.19 157.509L205.317 157.558L205.442 157.611L202.378 164.826ZM195.045 161.573L198.573 154.574L198.581 154.578L195.045 161.573ZM187.712 157.728L190.643 150.459L191.295 150.722L191.89 151.097L187.712 157.728ZM183.898 155.658L180.37 162.657L180.036 162.489L179.72 162.29L183.898 155.658ZM169.232 146.491L165.053 153.122L165.015 153.098L164.977 153.073L169.232 146.491ZM154.888 136.732L159.472 130.374C164.002 133.64 168.74 136.883 173.542 140.013L169.261 146.579L164.98 153.145C159.985 149.888 155.044 146.507 150.304 143.089L154.888 136.732ZM169.261 146.579L173.497 139.984L180.772 144.657L176.536 151.252L172.3 157.847L165.025 153.174L169.261 146.579ZM176.536 151.252L180.661 144.587L187.876 149.052L183.752 155.717L179.627 162.382L172.411 157.917L176.536 151.252ZM183.752 155.717L187.28 148.718C188.062 149.113 188.916 149.596 189.551 149.954C190.28 150.365 190.79 150.65 191.181 150.847L187.653 157.847L184.125 164.846C183.342 164.451 182.488 163.968 181.853 163.61C181.124 163.199 180.614 162.913 180.223 162.716L183.752 155.717ZM187.653 157.847L191.831 151.215C193.758 152.429 195.751 153.269 198.632 154.721L195.103 161.721L191.575 168.72C189.763 167.806 186.241 166.221 183.474 164.478L187.653 157.847ZM195.103 161.721L198.46 154.638L201.892 156.264L198.536 163.347L195.179 170.43L191.747 168.804L195.103 161.721ZM198.536 163.347L201.583 156.126L205.367 157.723L202.319 164.944L199.272 172.165L195.488 170.569L198.536 163.347ZM202.319 164.944L205.091 157.612C207.415 158.491 210.33 159.578 212.957 160.549L210.239 167.901L207.522 175.253C204.869 174.273 201.917 173.171 199.547 172.276L202.319 164.944ZM210.239 167.901L212.827 160.503C217.767 162.23 222.891 163.366 228.092 163.888L227.311 171.687L226.53 179.486C220.095 178.841 213.759 177.436 207.652 175.3L210.239 167.901ZM227.311 171.687H219.473V171.332H227.311H235.149V171.687H227.311ZM227.311 171.332L219.55 172.431C217.178 155.678 216.23 138.752 216.719 121.837L224.554 122.063L232.389 122.29C231.926 138.319 232.823 154.358 235.072 170.233L227.311 171.332ZM224.554 122.063L232.392 122.063C232.392 123.758 232.344 125.45 232.301 127.023C232.256 128.632 232.216 130.129 232.216 131.616H224.378H216.54C216.54 129.878 216.587 128.167 216.631 126.59C216.675 124.976 216.716 123.504 216.716 122.063L224.554 122.063ZM224.378 131.616L232.216 131.642C232.173 144.562 233.031 157.469 234.783 170.268L227.018 171.332L219.252 172.395C217.401 158.874 216.494 145.239 216.54 131.59L224.378 131.616ZM227.018 171.332L226.221 179.129C219.716 178.464 213.311 177.041 207.133 174.889L209.711 167.487L212.29 160.085C217.316 161.836 222.526 162.994 227.815 163.534L227.018 171.332ZM209.711 167.487L207.435 174.988C204.678 174.151 201.967 173.167 199.314 172.04L202.378 164.826L205.442 157.611C207.581 158.52 209.766 159.313 211.987 159.987L209.711 167.487ZM202.378 164.826L199.566 172.142C196.822 171.087 194.133 169.895 191.509 168.568L195.045 161.573L198.581 154.578C200.734 155.666 202.94 156.645 205.19 157.509L202.378 164.826ZM195.045 161.573L191.517 168.572C189.615 167.613 186.301 166.104 183.533 164.36L187.712 157.728L191.89 151.097C193.815 152.31 195.781 153.166 198.573 154.574L195.045 161.573ZM187.712 157.728L184.78 164.998C183.482 164.474 182.411 163.859 181.697 163.435C180.814 162.911 180.639 162.793 180.37 162.657L183.898 155.658L187.427 148.659C187.942 148.919 188.404 149.184 188.763 149.396C188.945 149.503 189.122 149.609 189.272 149.699C189.431 149.795 189.562 149.874 189.693 149.952C190.225 150.267 190.475 150.391 190.643 150.459L187.712 157.728ZM183.898 155.658L179.72 162.29C178.652 161.617 177.498 160.932 176.234 160.182C175.005 159.453 173.665 158.659 172.387 157.854L176.565 151.222L180.744 144.591C181.812 145.264 182.965 145.948 184.23 146.698C185.458 147.427 186.798 148.221 188.077 149.027L183.898 155.658ZM176.565 151.222L172.387 157.854C171.151 157.075 169.851 156.227 168.616 155.421C167.358 154.601 166.165 153.822 165.053 153.122L169.232 146.491L173.41 139.859C174.646 140.637 175.946 141.486 177.181 142.292C178.439 143.112 179.632 143.89 180.744 144.591L176.565 151.222ZM169.232 146.491L164.977 153.073C159.877 149.777 155.027 146.456 150.339 143.114L154.888 136.732L159.438 130.349C163.96 133.573 168.613 136.758 173.487 139.908L169.232 146.491Z" fill="white" mask="url(#path-14-inside-4_12_36)"/>
<path d="M311.749 191.226L311.761 191.078C312.048 187.303 312.335 183.54 312.621 179.488L312.626 179.412L312.635 179.336L313.064 175.392C313.207 174.058 313.35 172.69 313.492 171.251C313.782 168.324 314.071 165.691 314.358 163.081L314.377 162.913L314.409 162.748C314.516 162.21 314.572 161.715 314.646 161.049C314.712 160.443 314.795 159.685 314.957 158.832C319.463 127.294 330.76 91.9195 363.67 53.6521C353.65 51.1634 343.497 49.2482 333.26 47.9197C320.854 46.3109 308.359 45.5078 295.852 45.5144H295.833C281.712 45.4547 267.609 46.5262 253.658 48.7195C253.345 54.2268 252.735 60.0766 252.05 66.2634L251.203 73.866C248.037 104.061 244.107 140.628 251.724 178.26C259.138 214.859 267.726 247.341 273.15 265.519C273.528 266.782 273.876 268.01 274.19 269.135C274.269 269.385 274.351 269.653 274.435 269.927L274.674 270.746L276.046 275.342C277.197 279.123 278.507 282.507 279.753 286.285C280.152 287.496 280.541 288.592 280.969 289.858C283.145 296.137 285.321 302.212 287.421 308.115L287.647 308.752V308.844C287.651 308.851 287.655 308.86 287.658 308.868C287.698 308.958 287.746 309.069 287.794 309.196L287.81 309.239L289.504 313.854L289.518 313.889C290.021 315.301 290.555 316.722 291.07 318.083L291.073 318.093C293.058 323.372 294.999 328.38 296.851 333.043C296.938 328.634 296.986 324.036 296.986 319.327C296.986 314.644 296.985 309.972 296.844 305.34L296.842 305.279V303.768L296.672 297.843L296.67 297.787V296.044C296.442 289.737 296.102 283.635 295.677 278.026C295.355 274.152 295.294 270.261 295.493 266.379C295.501 263.819 295.828 261.421 296.13 259.36C296.154 258.674 296.25 258.058 296.337 257.574C296.47 256.833 296.515 256.695 296.607 256.135L296.618 256.068L296.632 256.002C298.778 245.313 302.766 235.089 308.412 225.796C310.058 215.613 311.077 205.337 311.464 195.027C311.473 194.227 311.566 193.403 311.629 192.834C311.707 192.125 311.749 191.699 311.749 191.375V191.226Z" stroke="white" stroke-width="7.83814"/>
<mask id="path-17-inside-5_12_36" fill="white">
<path d="M300.034 278.165C300.481 283.968 300.838 290.031 301.077 296.414C300.868 289.915 300.511 283.619 300.064 277.817C299.745 274.189 299.675 270.545 299.855 266.908C299.65 270.66 299.71 274.421 300.034 278.165V278.165Z"/>
</mask>
<path d="M301.077 296.414L308.911 296.162L293.244 296.706L301.077 296.414ZM300.064 277.817L307.872 277.131L307.875 277.173L307.879 277.215L300.064 277.817ZM299.855 266.908L292.028 266.48L307.683 267.295L299.855 266.908ZM300.034 278.165L307.849 277.563C308.303 283.464 308.667 289.631 308.91 296.121L301.077 296.414L293.244 296.706C293.01 290.431 292.658 284.471 292.219 278.767L300.034 278.165ZM301.077 296.414L293.243 296.665C293.038 290.289 292.687 284.11 292.249 278.419L300.064 277.817L307.879 277.215C308.334 283.129 308.698 289.541 308.911 296.162L301.077 296.414ZM300.064 277.817L292.256 278.503C291.905 274.519 291.829 270.516 292.026 266.521L299.855 266.908L307.683 267.295C307.521 270.574 307.584 273.86 307.872 277.131L300.064 277.817ZM299.855 266.908L307.681 267.336C307.496 270.72 307.55 274.112 307.843 277.489L300.034 278.165L292.225 278.841C291.869 274.73 291.803 270.6 292.028 266.48L299.855 266.908Z" fill="white" mask="url(#path-17-inside-5_12_36)"/>
<mask id="path-19-inside-6_12_36" fill="white">
<path d="M276.936 291.049C279.172 297.517 281.407 303.805 283.642 309.826C281.466 303.775 279.201 297.517 276.936 291.049Z"/>
</mask>
<path d="M276.936 291.049L269.528 293.61L284.334 288.458L276.936 291.049ZM283.642 309.826L291.018 307.173L276.294 312.554L283.642 309.826ZM276.936 291.049L284.344 288.489C286.566 294.916 288.781 301.146 290.99 307.097L283.642 309.826L276.294 312.554C274.033 306.464 271.777 300.118 269.528 293.61L276.936 291.049ZM283.642 309.826L276.266 312.478C274.098 306.448 271.818 300.147 269.539 293.64L276.936 291.049L284.334 288.458C286.585 294.886 288.835 301.103 291.018 307.173L283.642 309.826Z" fill="white" mask="url(#path-19-inside-6_12_36)"/>
<path d="M450.281 182.712C445.227 183.884 440.125 184.839 434.987 185.573C424.144 187.249 413.439 189.728 402.959 192.989L402.943 192.993L402.928 192.997C399.942 193.9 397.02 195.003 394.181 196.297V196.296L393.404 196.659L393.369 196.676L393.332 196.692C392.315 197.142 392.06 197.206 391.4 197.537V197.538L391.177 197.651L390.741 197.895L390.589 197.98L390.43 198.051L382.635 201.534C381.648 201.991 380.639 202.397 379.613 202.756L375.866 204.415L375.849 204.423L375.83 204.431L375.426 204.605L375.397 204.617L375.37 204.629C374.341 205.054 373.124 205.581 371.979 205.996C371.851 206.043 371.769 206.084 371.462 206.272C371.174 206.447 370.58 206.822 369.773 207.118C369.236 207.336 368.668 207.619 367.927 207.991C367.234 208.34 366.363 208.781 365.463 209.143C364.201 209.65 363.039 210.232 361.795 210.875C360.609 211.488 359.275 212.198 357.87 212.829C356.922 213.281 356 213.787 355.109 214.345L355.025 214.398L354.94 214.446C349.815 217.307 345.173 220.969 341.187 225.294L341.136 225.349L341.083 225.402C340.794 225.693 340.54 225.996 340.167 226.446C339.82 226.864 339.356 227.427 338.784 228.003V228.004C338.265 228.531 337.838 229.144 337.523 229.817L337.504 229.859L337.482 229.9C337.036 230.798 336.494 231.548 336.158 232.022C335.773 232.565 335.593 232.831 335.462 233.094C335.076 233.871 334.611 234.611 334.271 235.159C333.889 235.773 333.633 236.194 333.441 236.578H333.44L332.574 238.321L332.498 238.474L332.409 238.62C329.827 242.843 327.617 247.285 325.804 251.896C323.151 259.331 322.147 267.261 322.863 275.129L322.864 275.142C323.57 283.167 324.424 301.235 324.453 320.452C324.479 337.532 323.855 355.857 321.808 368.89C321.925 368.88 322.042 368.872 322.159 368.86L322.363 368.838H322.516C331.135 367.995 339.468 365.273 346.936 360.86C347.725 360.156 348.468 359.4 349.156 358.595L349.263 358.47L349.38 358.354L350.121 357.613C365.784 341.746 387.683 307.324 407.881 270.706C408.253 269.977 408.682 269.287 409.004 268.77C409.385 268.156 409.643 267.736 409.834 267.352C410.461 266.09 411.159 264.845 411.8 263.699C412.458 262.523 413.059 261.445 413.587 260.383L413.63 260.298L413.676 260.215L414.618 258.508C416.789 254.524 418.778 250.522 420.805 246.446L420.826 246.403L420.849 246.36L421.758 244.628C426.264 235.977 430.257 227.435 434.375 219.152C434.925 218.044 435.409 217.001 435.917 215.907C436.411 214.843 436.928 213.729 437.52 212.537C440.406 206.152 443.241 199.874 445.503 194.186L445.524 194.132L445.547 194.079L446.608 191.607C447.917 188.536 449.15 185.551 450.281 182.712Z" stroke="white" stroke-width="7.83814"/>
<mask id="path-22-inside-7_12_36" fill="white">
<path d="M389.592 194.486C390.548 193.941 391.356 193.606 392.275 193.145C391.34 193.477 390.44 193.927 389.592 194.486V194.486Z"/>
</mask>
<path d="M392.275 193.145L389.648 185.76L395.791 200.15L392.275 193.145ZM389.592 194.486L385.709 187.677C386.853 187.025 388.47 186.284 388.758 186.139L392.275 193.145L395.791 200.15C394.243 200.927 394.242 200.857 393.476 201.294L389.592 194.486ZM392.275 193.145L394.901 200.529C394.574 200.646 394.239 200.81 393.907 201.029L389.592 194.486L385.278 187.942C386.641 187.043 388.106 186.308 389.648 185.76L392.275 193.145Z" fill="white" mask="url(#path-22-inside-7_12_36)"/>
<path d="M584.152 332.84C571.871 340.251 559.207 346.974 546.213 352.979V352.98L536.751 357.389L536.667 357.427L536.583 357.462C535.967 357.714 535.267 358.04 534.458 358.417C533.724 358.759 532.889 359.147 532.102 359.474C531.669 359.675 531.242 359.87 530.82 360.062C548.131 363.176 565.217 367.498 581.958 372.999C583.473 360.902 584.212 348.714 584.165 336.514V336.499C584.165 335.262 584.164 334.043 584.152 332.84Z" stroke="white" stroke-width="7.83814"/>
<path d="M550.576 200.681C550.087 204.841 549.49 209.146 548.786 213.664L548.775 213.738L548.761 213.811L547.912 218.169C547.312 221.252 546.421 224.304 545.588 227.154C545.209 228.768 544.697 230.347 544.058 231.874C541.927 238.154 539.178 244.197 535.851 249.906L535.818 249.961C533.142 254.387 530.121 258.583 526.785 262.51C526.729 262.61 526.667 262.71 526.6 262.808C526.153 263.464 525.623 263.833 525.449 263.952L525.085 264.325L524.961 264.453L524.826 264.569C521.512 267.405 518.488 270.23 515.749 273.043L512.961 275.906C485.939 304.734 480.605 332.779 482.322 350.073C498.119 343.867 517.56 335.682 535.615 327.071C554.441 318.092 571.435 308.796 581.266 300.878C579.195 283.579 575.615 266.506 570.572 249.865L570.059 248.191C564.98 231.776 558.458 215.874 550.576 200.681Z" stroke="white" stroke-width="7.83814"/>
<path d="M482.02 114.024C485.271 123.372 488.782 133.52 490.109 142.774C491.445 152.097 490.713 161.55 484.237 168.484C481.152 180.737 474.391 198.099 465.439 219.15L465.42 219.193L465.401 219.237C463.602 223.198 462.098 226.771 460.249 230.875V230.874C459.63 232.284 458.867 233.796 458.19 235.159C457.478 236.59 456.848 237.882 456.382 239.034L456.34 239.139L456.292 239.243C452.551 247.138 448.579 255.238 444.264 263.716L444.258 263.729L444.251 263.742C438.539 274.771 432.768 285.977 426.413 296.843C418.097 311.705 409.832 326.048 401.461 339.101L401.442 339.131L401.421 339.162C395.975 347.318 390.759 354.978 385.808 361.49L385.765 361.547L385.719 361.603C385.06 362.407 384.39 363.291 383.665 364.25C382.958 365.184 382.194 366.193 381.42 367.136C379.98 368.893 378.575 370.607 377.458 372.026C376.374 373.404 374.774 375.385 373.034 376.848L371.155 378.757C369.183 380.762 367.332 382.647 365.45 384.241L365.413 384.272L365.375 384.302C364.4 385.088 363.476 385.941 362.613 386.855L362.524 386.949L362.43 387.036C358.699 390.496 355.826 394.811 354.047 399.627C353.848 400.364 353.592 401.051 353.413 401.537C353.183 402.159 353.05 402.532 352.968 402.863L352.883 403.208L352.828 403.333L352.831 403.601L352.824 403.63V404.149L352.71 404.61C352.632 404.93 352.584 405.283 352.508 405.9C352.441 406.447 352.345 407.26 352.137 408.105C351.976 408.76 351.967 409.378 351.935 410.637V410.848C351.982 413.22 352.282 415.573 352.823 417.868L355.223 415.428L355.258 415.393C374.215 396.604 396.352 381.438 420.608 370.624C427.645 367.35 434.398 364.962 440.617 362.664C445.697 360.786 450.405 359.464 454.71 358.412C454.153 354.502 453.853 350.557 453.819 346.605L453.816 345.565C453.819 320.662 463.413 287.356 495.929 254.578H495.93C497.586 252.896 500.298 250.365 502.542 248.301C503.679 247.256 504.716 246.312 505.468 245.629C505.845 245.288 506.15 245.012 506.362 244.821C506.414 244.774 506.46 244.732 506.5 244.696C520.062 228.898 522.317 209.61 524.038 191.245L524.041 191.208L524.045 191.172C525.078 181.988 525.921 173.093 528.689 165.136C528.548 164.933 528.415 164.743 528.293 164.566C527.88 163.965 527.348 163.197 526.866 162.583C526.349 161.927 525.994 161.49 525.552 160.883C525.247 160.496 524.96 160.096 524.69 159.683C524.298 159.153 523.931 158.606 523.588 158.042L523.538 157.977C518.63 151.721 513.53 145.616 508.209 139.72L508.204 139.713C507.02 138.395 505.836 137.107 504.597 135.791L504.587 135.781C500.31 131.202 496.1 126.812 491.522 122.612L483.499 115.331L483.5 115.33C483.018 114.894 482.523 114.461 482.02 114.024Z" stroke="white" stroke-width="7.83814"/>
<path d="M477.733 382.145C475.762 382.145 473.918 382.199 472.2 382.303C463.631 383.579 455.194 385.648 446.999 388.487L446.84 388.543L446.678 388.584C446.362 388.664 446.002 388.796 445.387 389.029C444.897 389.215 444.19 389.486 443.433 389.692C441.456 390.379 439.511 391.154 437.602 392.016L436.77 392.398C436.132 392.717 435.447 393.026 434.856 393.292C434.192 393.591 433.633 393.844 433.155 394.086L433.075 394.126L432.993 394.163L425.328 397.612C418.593 400.925 412.047 404.618 405.72 408.674C402.947 410.544 400.396 412.081 397.98 413.983L397.891 414.054L397.797 414.119C392.324 417.938 387.091 422.1 382.131 426.582L382.125 426.587C379.535 428.918 377.04 431.166 374.553 433.684L374.536 433.701L374.518 433.72C369.406 438.764 364.64 444.157 360.254 449.861L360.231 449.891C343.917 470.7 339.66 501.325 341.667 532.622C343.665 563.768 351.816 594.782 359.44 615.613L360.281 617.852C360.607 618.664 360.902 619.443 361.183 620.184L361.311 620.519C387.221 614.515 412.163 604.814 435.386 591.697C459.126 578.246 480.89 561.493 500.042 541.926L500.05 541.917L501.869 540.054C539.11 501.567 565.064 453.36 576.839 400.812L576.801 400.798V400.507C566.941 396.77 550.459 392.383 532.609 388.82C513.237 384.954 492.675 382.145 477.733 382.145Z" stroke="white" stroke-width="7.83814"/>
<path d="M105.993 555.299L105.755 555.034L105.471 554.815C105.437 554.789 105.406 554.761 105.378 554.731L105.238 554.579L105.08 554.443L102.226 551.956C101.148 550.976 100.113 550.011 99.0872 548.999L98.7776 548.686L98.7268 548.635L98.675 548.586C97.4915 547.473 96.3378 546.359 95.2239 545.204L95.1819 545.161L95.1389 545.118L94.3635 544.363L94.3069 544.308L94.2483 544.255C94.1099 544.13 93.9791 543.997 93.8557 543.856L93.7102 543.691L93.5471 543.543L93.343 543.356L92.8655 542.875V542.874L92.3196 542.321C90.3356 540.284 88.3804 538.245 86.4241 536.179C84.1304 533.684 81.8771 531.203 79.6292 528.644C79.0126 527.87 78.4049 527.179 77.8645 526.563C77.2826 525.901 76.7743 525.32 76.2727 524.686L76.2483 524.654L76.2229 524.624C71.9608 519.446 67.7038 513.985 63.7356 508.533L63.7053 508.492L63.6741 508.452C61.7354 505.929 59.7825 503.106 57.761 500.183C55.7359 497.254 53.8083 494.462 52.1682 491.694L52.1204 491.614L52.0696 491.537C49.2738 487.291 46.7476 483.031 44.2053 478.457C42.7181 475.696 41.0061 472.003 39.2893 469.094C37.6591 466.21 36.1902 463.236 34.8899 460.186L34.8752 460.151L34.8596 460.117L30.554 450.526C29.1512 447.402 27.7563 444.009 26.6487 440.926C25.4986 437.724 24.367 434.574 23.2375 431.144C22.6818 429.456 22.194 427.832 21.6897 426.154C21.1891 424.489 20.6719 422.77 20.0793 420.971C19.8464 420.263 19.6652 419.535 19.4446 418.642C19.2478 417.845 19.0154 416.903 18.7063 415.935C17.4953 410.741 16.1834 406.021 15.0286 400.767C14.9023 400.035 14.7384 399.322 14.5823 398.676C16.9948 397.685 19.5111 396.759 22.4622 396.122H23.2473L24.0901 395.689C28.1291 393.615 32.3869 391.253 36.6887 388.723L36.7004 388.716L39.8274 386.86C43.1249 384.982 46.375 382.967 49.5334 380.942V380.941C51.3166 379.834 53.0639 378.704 54.7678 377.583C55.9144 376.858 57.0594 376.114 58.1897 375.333C59.9206 374.204 61.6062 373.037 63.1458 371.988L63.1956 371.954L63.2454 371.918C64.1262 371.277 65.0719 370.621 66.0461 369.934C69.3482 367.64 72.3272 365.495 74.7952 363.638C90.5607 366.788 106.125 370.9 121.4 375.957L121.418 375.964L121.438 375.97C126.809 377.687 131.609 379.402 136.698 381.405L136.832 381.459L136.971 381.502C139.347 382.239 141.67 383.143 143.922 384.208L144.717 384.584H145.395C147.281 385.218 149.123 385.981 150.906 386.873L151.021 386.931L151.14 386.98C177.216 397.947 201.272 413.306 222.286 432.407L225.37 435.529L225.819 435.984L226.015 436.083C226.061 436.14 226.125 436.22 226.19 436.298C226.341 436.481 226.549 436.723 226.806 436.983L226.841 437.019L226.877 437.054C232.459 442.422 237.368 448.465 241.495 455.047C245.364 467.8 248.393 480.799 250.56 493.959L250.535 494.199L250.606 494.673L251.462 500.448C251.923 504.121 252.37 507.521 252.735 511.382C253.106 515.316 253.447 519.256 253.701 523.184C253.829 525.403 254.008 527.094 254.008 528.946V529.036L254.013 529.126C254.238 534.02 254.239 538.929 254.239 543.913V546.738C254.192 548.226 254.016 550.615 254.01 552.531C253.558 563.576 251.982 574.545 249.308 585.262C248.985 586.486 248.633 587.691 248.266 588.95L247.08 592.606L247.07 592.638L247.061 592.669C246.899 593.198 246.717 593.731 246.516 594.266L246.308 594.802L246.281 594.867L246.258 594.934C244.802 598.995 242.99 602.915 240.845 606.646L240.834 606.652L240.266 607.637L239.592 608.771C238.699 610.234 237.736 611.653 236.705 613.021L236.095 613.805C235.47 614.594 234.828 615.371 234.415 615.825C234.109 616.162 233.815 616.485 233.528 616.796L232.53 617.683L231.582 618.525C230.922 619.101 229.989 619.919 229.142 620.682L224.916 619.628L222.946 619.122C218.332 617.915 213.77 616.57 209.259 615.087L209.246 615.083L209.235 615.079C206.837 614.308 204.464 613.507 202.086 612.676C195.755 610.399 189.51 607.931 183.35 605.271L177.664 602.71L177.65 602.703L177.634 602.696C175.721 601.854 173.884 600.981 172.062 600.073L172.053 600.068L172.045 600.064L168.875 598.502C163.259 595.678 157.755 592.664 152.365 589.459L148.171 586.934C145.704 585.412 142.945 583.656 140.81 582.272C138.708 580.911 136.623 579.485 134.538 578.039L134.531 578.034C131.35 575.84 128.2 573.562 125.137 571.229C123.893 570.207 122.634 569.234 121.511 568.341L121.501 568.333L121.492 568.325L118.225 565.758L115.427 563.351L115.347 563.282L115.264 563.218C114.762 562.83 114.265 562.405 113.659 561.879L113.611 561.838L111.257 559.861L111.2 559.813L111.142 559.769C109.694 558.643 108.26 557.298 106.652 555.82L106.591 555.765L106.529 555.712L106.012 555.276L105.993 555.299ZM105.993 555.299L103.484 558.271L105.667 555.017C105.788 555.097 105.897 555.192 105.993 555.299ZM240.771 607.93C240.062 608.827 239.741 609.597 239.741 609.597C240.297 609.041 240.774 608.565 241.183 608.167M240.771 607.93L241.183 608.167M240.771 607.93C241.117 607.492 241.554 607.023 242.094 606.6L242.354 607.098C242.043 607.348 241.659 607.704 241.183 608.167M240.771 607.93L241.183 608.167M243.653 605.846C243.638 606.052 243.594 606.43 243.467 606.868C243.658 607.248 243.66 608.143 243.66 609.553V605.678L243.653 605.846Z" stroke="white" stroke-width="7.83814"/>
<path d="M393.36 62.2434C392.903 62.6954 392.435 63.135 391.955 63.5627C391.403 64.2468 390.825 64.8195 390.418 65.2268C389.881 65.7646 389.577 66.0789 389.338 66.3977L389.227 66.5452L389.103 66.6829C386.202 69.8787 383.385 72.983 380.863 76.0706L380.804 76.1428L380.74 76.2122C379.079 78.0584 377.56 80.0284 376.195 82.1047L376.058 82.3127L375.897 82.5002C374.294 84.3731 372.946 86.2596 371.49 88.3L371.442 88.3694L371.389 88.4368C370.77 89.2294 370.229 90.0809 369.775 90.9778L369.689 91.1467L369.586 91.3079C367.444 94.679 365.594 97.3057 363.946 100.333L363.927 100.367L363.908 100.401L360.492 106.389C360.042 107.286 359.595 108.105 359.182 108.864C358.745 109.666 358.345 110.402 357.948 111.198L357.913 111.265L357.877 111.33C356.291 114.225 354.925 117.236 353.79 120.336L353.755 120.433L353.714 120.528C350.595 127.834 348.055 135.375 346.115 143.079L346.079 143.221L346.032 143.36C345.813 144.019 345.637 144.772 345.411 145.749C345.204 146.651 344.947 147.778 344.589 148.854C344.134 150.22 343.898 151.851 343.581 153.754C343.426 154.688 343.193 155.852 342.986 156.927C342.769 158.049 342.57 159.12 342.441 160.026L342.43 160.099L342.416 160.172C342.146 161.663 341.94 163.168 341.722 164.772C341.507 166.348 341.28 168.024 340.973 169.714L340.967 169.748L340.96 169.781C340.854 170.315 340.797 170.807 340.724 171.471C340.659 172.06 340.577 172.796 340.421 173.623C339.869 178.353 339.588 183.094 339.301 187.696C339.292 188.699 339.21 189.597 339.142 190.314C339.135 190.382 339.13 190.449 339.124 190.514L340.127 189.925L340.18 189.894L340.233 189.865L343.409 188.13L343.471 188.096L343.533 188.065C344.372 187.645 350.078 184.928 351.354 184.161L351.529 184.057L351.713 183.971L355.073 182.402C358.545 180.785 362.378 179.029 366.541 177.273C367.486 176.836 369.908 175.87 370.973 175.493L378.631 172.085L378.674 172.066L378.717 172.048L380.24 171.42C396.002 164.994 412.469 160.458 429.299 157.91L429.352 157.903C438.333 156.667 447.179 154.594 455.775 151.71C456.866 151.312 458.156 150.932 459.526 150.325C460.352 149.941 461.152 149.502 461.918 149.008L461.951 148.987L461.985 148.966L462.075 148.901C462.082 148.896 462.087 148.889 462.093 148.884C462.114 148.716 462.122 148.546 462.118 148.376C462.07 147.649 461.961 146.927 461.791 146.218L461.683 145.767V145.484C461.678 145.455 461.673 145.417 461.664 145.37C461.627 145.159 461.566 144.854 461.479 144.46C461.307 143.682 461.056 142.652 460.751 141.499C460.264 139.699 459.65 137.66 459.129 135.957C458.684 134.504 458.242 133.082 458.082 132.497L458.079 132.498C457.831 131.629 457.515 130.737 457.147 129.703C456.808 128.752 456.423 127.669 456.101 126.562C455.799 125.657 455.556 125.034 455.168 123.906C454.996 123.405 454.682 122.432 454.408 121.592C454.266 121.156 454.132 120.743 454.019 120.407C453.962 120.24 453.915 120.1 453.876 119.99C453.841 119.891 453.824 119.845 453.821 119.836L453.794 119.771L453.771 119.705C451.419 113.146 448.175 101.332 446.285 93.4436L446.286 93.4426C445.74 91.3047 445.294 89.1425 444.951 86.9631C428.603 77.0521 411.322 68.7731 393.36 62.2434Z" stroke="white" stroke-width="7.83814"/>
<mask id="path-30-inside-8_12_36" fill="white">
<path d="M394.61 8H393.766H394.61Z"/>
</mask>
<path d="M394.61 8V0.161863H393.766V8V15.8381H394.61V8ZM393.766 8V15.8381H394.61V8V0.161863H393.766V8Z" fill="white" mask="url(#path-30-inside-8_12_36)"/>
<mask id="path-32-inside-9_12_36" fill="white">
<path d="M8.70166 190.462V191.482V191.804V190.784V190.462Z"/>
</mask>
<path d="M8.70166 190.462H16.5398V191.482H8.70166H0.863523V190.462H8.70166ZM8.70166 191.482H16.5398V191.804H8.70166H0.863523V191.482H8.70166ZM8.70166 191.804H0.863523V190.784H8.70166H16.5398V191.804H8.70166ZM8.70166 190.784H0.863523V190.462H8.70166H16.5398V190.784H8.70166Z" fill="white" mask="url(#path-32-inside-9_12_36)"/>
</svg>
